<svg xmlns="http://www.w3.org/2000/svg" xmlns:xlink="http://www.w3.org/1999/xlink" width="75" zoomAndPan="magnify" viewBox="0 0 56.25 30.000001" height="40" preserveAspectRatio="xMidYMid meet" version="1.0"><defs><g/><clipPath id="3cb29dc9a0"><path d="M 11.867188 7.96875 L 14.828125 7.96875 L 14.828125 10.929688 L 11.867188 10.929688 Z M 11.867188 7.96875 " clip-rule="nonzero"/></clipPath><clipPath id="8ed5c9d987"><path d="M 13.347656 7.96875 C 12.527344 7.96875 11.867188 8.628906 11.867188 9.449219 C 11.867188 10.265625 12.527344 10.929688 13.347656 10.929688 C 14.164062 10.929688 14.828125 10.265625 14.828125 9.449219 C 14.828125 8.628906 14.164062 7.96875 13.347656 7.96875 Z M 13.347656 7.96875 " clip-rule="nonzero"/></clipPath><clipPath id="b4f8a52d63"><path d="M 2.664062 10.378906 L 13.347656 10.378906 L 13.347656 21.066406 L 2.664062 21.066406 Z M 2.664062 10.378906 " clip-rule="nonzero"/></clipPath><clipPath id="712b1f59d7"><path d="M 8.003906 10.378906 C 5.054688 10.378906 2.664062 12.773438 2.664062 15.722656 C 2.664062 18.671875 5.054688 21.066406 8.003906 21.066406 C 10.953125 21.066406 13.347656 18.671875 13.347656 15.722656 C 13.347656 12.773438 10.953125 10.378906 8.003906 10.378906 Z M 8.003906 10.378906 " clip-rule="nonzero"/></clipPath><clipPath id="9576ad039f"><path d="M 4.746094 12.464844 L 11.261719 12.464844 L 11.261719 18.980469 L 4.746094 18.980469 Z M 4.746094 12.464844 " clip-rule="nonzero"/></clipPath><clipPath id="abafa00aff"><path d="M 8.003906 12.464844 C 6.207031 12.464844 4.746094 13.921875 4.746094 15.722656 C 4.746094 17.519531 6.207031 18.980469 8.003906 18.980469 C 9.804688 18.980469 11.261719 17.519531 11.261719 15.722656 C 11.261719 13.921875 9.804688 12.464844 8.003906 12.464844 Z M 8.003906 12.464844 " clip-rule="nonzero"/></clipPath></defs><g clip-path="url(#3cb29dc9a0)"><g clip-path="url(#8ed5c9d987)"><path fill="#edeae9" d="M 11.867188 7.96875 L 14.828125 7.96875 L 14.828125 10.929688 L 11.867188 10.929688 Z M 11.867188 7.96875 " fill-opacity="1" fill-rule="nonzero"/></g></g><g clip-path="url(#b4f8a52d63)"><g clip-path="url(#712b1f59d7)"><path fill="#edeae9" d="M 2.664062 10.378906 L 13.347656 10.378906 L 13.347656 21.066406 L 2.664062 21.066406 Z M 2.664062 10.378906 " fill-opacity="1" fill-rule="nonzero"/></g></g><g clip-path="url(#9576ad039f)"><g clip-path="url(#abafa00aff)"><path fill="#101e27" d="M 4.746094 12.464844 L 11.261719 12.464844 L 11.261719 18.980469 L 4.746094 18.980469 Z M 4.746094 12.464844 " fill-opacity="1" fill-rule="nonzero"/></g></g><g fill="#edeae9" fill-opacity="1"><g transform="translate(17.724304, 18.717351)"><g><path d="M 1.203125 0.0625 C 1.023438 0.0625 0.890625 0.015625 0.796875 -0.078125 C 0.703125 -0.179688 0.65625 -0.320312 0.65625 -0.5 L 0.65625 -5.515625 C 0.65625 -5.703125 0.703125 -5.84375 0.796875 -5.9375 C 0.890625 -6.03125 1.023438 -6.078125 1.203125 -6.078125 C 1.378906 -6.078125 1.515625 -6.03125 1.609375 -5.9375 C 1.703125 -5.84375 1.75 -5.703125 1.75 -5.515625 L 1.75 -0.5 C 1.75 -0.320312 1.703125 -0.179688 1.609375 -0.078125 C 1.515625 0.015625 1.378906 0.0625 1.203125 0.0625 Z M 1.203125 0.0625 "/></g></g></g><g fill="#edeae9" fill-opacity="1"><g transform="translate(20.13099, 18.717351)"><g><path d="M 1.078125 0.0625 C 0.910156 0.0625 0.78125 0.015625 0.6875 -0.078125 C 0.59375 -0.171875 0.546875 -0.304688 0.546875 -0.484375 L 0.546875 -3.703125 C 0.546875 -3.878906 0.59375 -4.007812 0.6875 -4.09375 C 0.78125 -4.1875 0.910156 -4.234375 1.078125 -4.234375 C 1.242188 -4.234375 1.367188 -4.1875 1.453125 -4.09375 C 1.546875 -4.007812 1.59375 -3.878906 1.59375 -3.703125 L 1.59375 -3.125 L 1.5 -3.328125 C 1.625 -3.628906 1.816406 -3.859375 2.078125 -4.015625 C 2.347656 -4.171875 2.648438 -4.25 2.984375 -4.25 C 3.316406 -4.25 3.59375 -4.1875 3.8125 -4.0625 C 4.03125 -3.9375 4.191406 -3.75 4.296875 -3.5 C 4.410156 -3.25 4.46875 -2.929688 4.46875 -2.546875 L 4.46875 -0.484375 C 4.46875 -0.304688 4.421875 -0.171875 4.328125 -0.078125 C 4.234375 0.015625 4.101562 0.0625 3.9375 0.0625 C 3.757812 0.0625 3.625 0.015625 3.53125 -0.078125 C 3.4375 -0.171875 3.390625 -0.304688 3.390625 -0.484375 L 3.390625 -2.484375 C 3.390625 -2.816406 3.328125 -3.054688 3.203125 -3.203125 C 3.085938 -3.347656 2.898438 -3.421875 2.640625 -3.421875 C 2.328125 -3.421875 2.078125 -3.320312 1.890625 -3.125 C 1.710938 -2.925781 1.625 -2.664062 1.625 -2.34375 L 1.625 -0.484375 C 1.625 -0.117188 1.441406 0.0625 1.078125 0.0625 Z M 1.078125 0.0625 "/></g></g></g><g fill="#edeae9" fill-opacity="1"><g transform="translate(25.123581, 18.717351)"><g><path d="M 2.078125 0.078125 C 1.835938 0.078125 1.578125 0.0507812 1.296875 0 C 1.023438 -0.0390625 0.785156 -0.125 0.578125 -0.25 C 0.484375 -0.3125 0.414062 -0.378906 0.375 -0.453125 C 0.34375 -0.535156 0.328125 -0.613281 0.328125 -0.6875 C 0.335938 -0.757812 0.367188 -0.820312 0.421875 -0.875 C 0.472656 -0.9375 0.535156 -0.976562 0.609375 -1 C 0.679688 -1.019531 0.765625 -1.003906 0.859375 -0.953125 C 1.085938 -0.847656 1.300781 -0.773438 1.5 -0.734375 C 1.695312 -0.691406 1.894531 -0.671875 2.09375 -0.671875 C 2.363281 -0.671875 2.566406 -0.71875 2.703125 -0.8125 C 2.835938 -0.90625 2.90625 -1.023438 2.90625 -1.171875 C 2.90625 -1.304688 2.859375 -1.410156 2.765625 -1.484375 C 2.679688 -1.554688 2.550781 -1.609375 2.375 -1.640625 L 1.515625 -1.796875 C 1.160156 -1.867188 0.890625 -2 0.703125 -2.1875 C 0.523438 -2.375 0.4375 -2.617188 0.4375 -2.921875 C 0.4375 -3.191406 0.507812 -3.425781 0.65625 -3.625 C 0.8125 -3.832031 1.019531 -3.988281 1.28125 -4.09375 C 1.550781 -4.195312 1.859375 -4.25 2.203125 -4.25 C 2.453125 -4.25 2.6875 -4.222656 2.90625 -4.171875 C 3.125 -4.117188 3.335938 -4.035156 3.546875 -3.921875 C 3.628906 -3.878906 3.6875 -3.820312 3.71875 -3.75 C 3.75 -3.675781 3.753906 -3.597656 3.734375 -3.515625 C 3.722656 -3.441406 3.691406 -3.375 3.640625 -3.3125 C 3.585938 -3.25 3.519531 -3.210938 3.4375 -3.203125 C 3.363281 -3.191406 3.28125 -3.207031 3.1875 -3.25 C 3.007812 -3.34375 2.835938 -3.40625 2.671875 -3.4375 C 2.515625 -3.476562 2.363281 -3.5 2.21875 -3.5 C 1.9375 -3.5 1.726562 -3.453125 1.59375 -3.359375 C 1.46875 -3.265625 1.40625 -3.140625 1.40625 -2.984375 C 1.40625 -2.859375 1.441406 -2.753906 1.515625 -2.671875 C 1.597656 -2.597656 1.722656 -2.546875 1.890625 -2.515625 L 2.734375 -2.359375 C 3.109375 -2.285156 3.390625 -2.15625 3.578125 -1.96875 C 3.765625 -1.789062 3.859375 -1.550781 3.859375 -1.25 C 3.859375 -0.832031 3.695312 -0.503906 3.375 -0.265625 C 3.050781 -0.0351562 2.617188 0.078125 2.078125 0.078125 Z M 2.078125 0.078125 "/></g></g></g><g fill="#edeae9" fill-opacity="1"><g transform="translate(29.28834, 18.717351)"><g><path d="M 1.078125 0.0625 C 0.910156 0.0625 0.78125 0.0078125 0.6875 -0.09375 C 0.59375 -0.195312 0.546875 -0.335938 0.546875 -0.515625 L 0.546875 -3.65625 C 0.546875 -3.84375 0.59375 -3.984375 0.6875 -4.078125 C 0.78125 -4.179688 0.910156 -4.234375 1.078125 -4.234375 C 1.253906 -4.234375 1.390625 -4.179688 1.484375 -4.078125 C 1.578125 -3.984375 1.625 -3.84375 1.625 -3.65625 L 1.625 -0.515625 C 1.625 -0.335938 1.578125 -0.195312 1.484375 -0.09375 C 1.390625 0.0078125 1.253906 0.0625 1.078125 0.0625 Z M 1.078125 -5.03125 C 0.878906 -5.03125 0.722656 -5.078125 0.609375 -5.171875 C 0.503906 -5.273438 0.453125 -5.414062 0.453125 -5.59375 C 0.453125 -5.769531 0.503906 -5.90625 0.609375 -6 C 0.722656 -6.101562 0.878906 -6.15625 1.078125 -6.15625 C 1.285156 -6.15625 1.441406 -6.101562 1.546875 -6 C 1.660156 -5.90625 1.71875 -5.769531 1.71875 -5.59375 C 1.71875 -5.414062 1.660156 -5.273438 1.546875 -5.171875 C 1.441406 -5.078125 1.285156 -5.03125 1.078125 -5.03125 Z M 1.078125 -5.03125 "/></g></g></g><g fill="#edeae9" fill-opacity="1"><g transform="translate(31.464597, 18.717351)"><g><path d="M 2.5 1.625 C 2.1875 1.625 1.882812 1.59375 1.59375 1.53125 C 1.3125 1.476562 1.054688 1.390625 0.828125 1.265625 C 0.722656 1.210938 0.648438 1.144531 0.609375 1.0625 C 0.566406 0.988281 0.550781 0.910156 0.5625 0.828125 C 0.582031 0.742188 0.617188 0.671875 0.671875 0.609375 C 0.734375 0.546875 0.800781 0.5 0.875 0.46875 C 0.957031 0.445312 1.039062 0.460938 1.125 0.515625 C 1.375 0.640625 1.609375 0.71875 1.828125 0.75 C 2.054688 0.789062 2.253906 0.8125 2.421875 0.8125 C 2.796875 0.8125 3.078125 0.71875 3.265625 0.53125 C 3.460938 0.34375 3.5625 0.0664062 3.5625 -0.296875 L 3.5625 -1.0625 L 3.640625 -1.0625 C 3.546875 -0.769531 3.363281 -0.535156 3.09375 -0.359375 C 2.832031 -0.191406 2.53125 -0.109375 2.1875 -0.109375 C 1.8125 -0.109375 1.484375 -0.191406 1.203125 -0.359375 C 0.921875 -0.535156 0.703125 -0.78125 0.546875 -1.09375 C 0.398438 -1.40625 0.328125 -1.769531 0.328125 -2.1875 C 0.328125 -2.5 0.367188 -2.78125 0.453125 -3.03125 C 0.546875 -3.28125 0.671875 -3.492188 0.828125 -3.671875 C 0.992188 -3.859375 1.191406 -4 1.421875 -4.09375 C 1.648438 -4.195312 1.90625 -4.25 2.1875 -4.25 C 2.539062 -4.25 2.847656 -4.160156 3.109375 -3.984375 C 3.367188 -3.816406 3.539062 -3.59375 3.625 -3.3125 L 3.546875 -3.09375 L 3.546875 -3.703125 C 3.546875 -3.878906 3.59375 -4.007812 3.6875 -4.09375 C 3.78125 -4.1875 3.90625 -4.234375 4.0625 -4.234375 C 4.238281 -4.234375 4.367188 -4.1875 4.453125 -4.09375 C 4.546875 -4.007812 4.59375 -3.878906 4.59375 -3.703125 L 4.59375 -0.421875 C 4.59375 0.253906 4.414062 0.765625 4.0625 1.109375 C 3.707031 1.453125 3.1875 1.625 2.5 1.625 Z M 2.46875 -0.90625 C 2.695312 -0.90625 2.890625 -0.957031 3.046875 -1.0625 C 3.203125 -1.164062 3.320312 -1.3125 3.40625 -1.5 C 3.5 -1.695312 3.546875 -1.925781 3.546875 -2.1875 C 3.546875 -2.570312 3.445312 -2.878906 3.25 -3.109375 C 3.0625 -3.335938 2.800781 -3.453125 2.46875 -3.453125 C 2.25 -3.453125 2.054688 -3.398438 1.890625 -3.296875 C 1.734375 -3.191406 1.613281 -3.046875 1.53125 -2.859375 C 1.445312 -2.671875 1.40625 -2.445312 1.40625 -2.1875 C 1.40625 -1.789062 1.5 -1.476562 1.6875 -1.25 C 1.882812 -1.019531 2.144531 -0.90625 2.46875 -0.90625 Z M 2.46875 -0.90625 "/></g></g></g><g fill="#edeae9" fill-opacity="1"><g transform="translate(36.61934, 18.717351)"><g><path d="M 1.078125 0.0625 C 0.910156 0.0625 0.78125 0.015625 0.6875 -0.078125 C 0.59375 -0.171875 0.546875 -0.304688 0.546875 -0.484375 L 0.546875 -5.546875 C 0.546875 -5.722656 0.59375 -5.851562 0.6875 -5.9375 C 0.78125 -6.03125 0.910156 -6.078125 1.078125 -6.078125 C 1.253906 -6.078125 1.390625 -6.03125 1.484375 -5.9375 C 1.578125 -5.851562 1.625 -5.722656 1.625 -5.546875 L 1.625 -3.328125 L 1.5 -3.328125 C 1.625 -3.628906 1.816406 -3.859375 2.078125 -4.015625 C 2.347656 -4.171875 2.648438 -4.25 2.984375 -4.25 C 3.316406 -4.25 3.59375 -4.1875 3.8125 -4.0625 C 4.03125 -3.9375 4.191406 -3.75 4.296875 -3.5 C 4.410156 -3.25 4.46875 -2.929688 4.46875 -2.546875 L 4.46875 -0.484375 C 4.46875 -0.304688 4.421875 -0.171875 4.328125 -0.078125 C 4.234375 0.015625 4.101562 0.0625 3.9375 0.0625 C 3.757812 0.0625 3.625 0.015625 3.53125 -0.078125 C 3.4375 -0.171875 3.390625 -0.304688 3.390625 -0.484375 L 3.390625 -2.484375 C 3.390625 -2.816406 3.328125 -3.054688 3.203125 -3.203125 C 3.085938 -3.347656 2.898438 -3.421875 2.640625 -3.421875 C 2.328125 -3.421875 2.078125 -3.320312 1.890625 -3.125 C 1.710938 -2.925781 1.625 -2.664062 1.625 -2.34375 L 1.625 -0.484375 C 1.625 -0.117188 1.441406 0.0625 1.078125 0.0625 Z M 1.078125 0.0625 "/></g></g></g><g fill="#edeae9" fill-opacity="1"><g transform="translate(41.61193, 18.717351)"><g><path d="M 2.46875 0.078125 C 2.09375 0.078125 1.78125 0.015625 1.53125 -0.109375 C 1.289062 -0.234375 1.109375 -0.414062 0.984375 -0.65625 C 0.867188 -0.894531 0.8125 -1.191406 0.8125 -1.546875 L 0.8125 -3.375 L 0.359375 -3.375 C 0.222656 -3.375 0.117188 -3.40625 0.046875 -3.46875 C -0.0234375 -3.539062 -0.0625 -3.640625 -0.0625 -3.765625 C -0.0625 -3.898438 -0.0234375 -4 0.046875 -4.0625 C 0.117188 -4.132812 0.222656 -4.171875 0.359375 -4.171875 L 0.8125 -4.171875 L 0.8125 -4.953125 C 0.8125 -5.128906 0.859375 -5.257812 0.953125 -5.34375 C 1.046875 -5.4375 1.175781 -5.484375 1.34375 -5.484375 C 1.519531 -5.484375 1.648438 -5.4375 1.734375 -5.34375 C 1.828125 -5.257812 1.875 -5.128906 1.875 -4.953125 L 1.875 -4.171875 L 2.78125 -4.171875 C 2.914062 -4.171875 3.019531 -4.132812 3.09375 -4.0625 C 3.164062 -4 3.203125 -3.898438 3.203125 -3.765625 C 3.203125 -3.640625 3.164062 -3.539062 3.09375 -3.46875 C 3.019531 -3.40625 2.914062 -3.375 2.78125 -3.375 L 1.875 -3.375 L 1.875 -1.609375 C 1.875 -1.335938 1.929688 -1.132812 2.046875 -1 C 2.171875 -0.863281 2.367188 -0.796875 2.640625 -0.796875 C 2.734375 -0.796875 2.816406 -0.800781 2.890625 -0.8125 C 2.960938 -0.832031 3.03125 -0.847656 3.09375 -0.859375 C 3.15625 -0.859375 3.207031 -0.832031 3.25 -0.78125 C 3.300781 -0.738281 3.328125 -0.644531 3.328125 -0.5 C 3.328125 -0.382812 3.304688 -0.28125 3.265625 -0.1875 C 3.234375 -0.101562 3.171875 -0.046875 3.078125 -0.015625 C 2.992188 0.015625 2.894531 0.0351562 2.78125 0.046875 C 2.664062 0.0664062 2.5625 0.078125 2.46875 0.078125 Z M 2.46875 0.078125 "/></g></g></g><g fill="#edeae9" fill-opacity="1"><g transform="translate(44.889118, 18.717351)"><g><path d="M 2.609375 0.078125 C 2.140625 0.078125 1.734375 -0.00390625 1.390625 -0.171875 C 1.046875 -0.347656 0.78125 -0.597656 0.59375 -0.921875 C 0.414062 -1.253906 0.328125 -1.640625 0.328125 -2.078125 C 0.328125 -2.515625 0.414062 -2.894531 0.59375 -3.21875 C 0.769531 -3.539062 1.015625 -3.789062 1.328125 -3.96875 C 1.648438 -4.15625 2.015625 -4.25 2.421875 -4.25 C 2.710938 -4.25 2.972656 -4.203125 3.203125 -4.109375 C 3.441406 -4.015625 3.644531 -3.875 3.8125 -3.6875 C 3.976562 -3.507812 4.101562 -3.289062 4.1875 -3.03125 C 4.28125 -2.769531 4.328125 -2.476562 4.328125 -2.15625 C 4.328125 -2.050781 4.289062 -1.972656 4.21875 -1.921875 C 4.15625 -1.867188 4.054688 -1.84375 3.921875 -1.84375 L 1.1875 -1.84375 L 1.1875 -2.453125 L 3.578125 -2.453125 L 3.453125 -2.328125 C 3.453125 -2.585938 3.410156 -2.804688 3.328125 -2.984375 C 3.253906 -3.160156 3.144531 -3.296875 3 -3.390625 C 2.851562 -3.484375 2.671875 -3.53125 2.453125 -3.53125 C 2.210938 -3.53125 2.007812 -3.472656 1.84375 -3.359375 C 1.675781 -3.253906 1.546875 -3.097656 1.453125 -2.890625 C 1.367188 -2.691406 1.328125 -2.453125 1.328125 -2.171875 L 1.328125 -2.109375 C 1.328125 -1.648438 1.4375 -1.300781 1.65625 -1.0625 C 1.875 -0.832031 2.195312 -0.71875 2.625 -0.71875 C 2.769531 -0.71875 2.9375 -0.738281 3.125 -0.78125 C 3.3125 -0.820312 3.488281 -0.882812 3.65625 -0.96875 C 3.769531 -1.039062 3.875 -1.070312 3.96875 -1.0625 C 4.0625 -1.050781 4.132812 -1.015625 4.1875 -0.953125 C 4.238281 -0.898438 4.269531 -0.832031 4.28125 -0.75 C 4.289062 -0.664062 4.273438 -0.582031 4.234375 -0.5 C 4.191406 -0.414062 4.117188 -0.34375 4.015625 -0.28125 C 3.816406 -0.15625 3.585938 -0.0625 3.328125 0 C 3.066406 0.0507812 2.828125 0.078125 2.609375 0.078125 Z M 2.609375 0.078125 "/></g></g></g><g fill="#edeae9" fill-opacity="1"><g transform="translate(49.514732, 18.717351)"><g><path d="M 1.09375 0.0625 C 0.925781 0.0625 0.789062 0.015625 0.6875 -0.078125 C 0.59375 -0.171875 0.546875 -0.304688 0.546875 -0.484375 L 0.546875 -3.703125 C 0.546875 -3.878906 0.59375 -4.007812 0.6875 -4.09375 C 0.78125 -4.1875 0.910156 -4.234375 1.078125 -4.234375 C 1.242188 -4.234375 1.367188 -4.1875 1.453125 -4.09375 C 1.546875 -4.007812 1.59375 -3.878906 1.59375 -3.703125 L 1.59375 -3.171875 L 1.515625 -3.171875 C 1.585938 -3.503906 1.738281 -3.757812 1.96875 -3.9375 C 2.207031 -4.113281 2.519531 -4.21875 2.90625 -4.25 C 3.03125 -4.269531 3.125 -4.242188 3.1875 -4.171875 C 3.257812 -4.097656 3.300781 -3.988281 3.3125 -3.84375 C 3.320312 -3.695312 3.289062 -3.578125 3.21875 -3.484375 C 3.144531 -3.398438 3.03125 -3.347656 2.875 -3.328125 L 2.6875 -3.3125 C 2.34375 -3.28125 2.082031 -3.175781 1.90625 -3 C 1.726562 -2.820312 1.640625 -2.570312 1.640625 -2.25 L 1.640625 -0.484375 C 1.640625 -0.304688 1.59375 -0.171875 1.5 -0.078125 C 1.40625 0.015625 1.269531 0.0625 1.09375 0.0625 Z M 1.09375 0.0625 "/></g></g></g></svg>