<svg xmlns="http://www.w3.org/2000/svg" xmlns:xlink="http://www.w3.org/1999/xlink" width="500" zoomAndPan="magnify" viewBox="0 0 375 374.999991" height="500" preserveAspectRatio="xMidYMid meet" version="1.0"><defs><g/><clipPath id="45f5bb3f22"><path d="M 20.441406 156.363281 L 354.71875 156.363281 L 354.71875 217.226562 L 20.441406 217.226562 Z M 20.441406 156.363281 " clip-rule="nonzero"/></clipPath><clipPath id="42879f2cc5"><path d="M 37.691406 156.363281 L 337.308594 156.363281 C 346.835938 156.363281 354.558594 164.085938 354.558594 173.613281 L 354.558594 199.976562 C 354.558594 209.503906 346.835938 217.226562 337.308594 217.226562 L 37.691406 217.226562 C 28.164062 217.226562 20.441406 209.503906 20.441406 199.976562 L 20.441406 173.613281 C 20.441406 164.085938 28.164062 156.363281 37.691406 156.363281 Z M 37.691406 156.363281 " clip-rule="nonzero"/></clipPath></defs><rect x="-37.5" width="450" fill="#ffffff" y="-37.499999" height="449.999989" fill-opacity="1"/><rect x="-37.5" width="450" fill="#101e27" y="-37.499999" height="449.999989" fill-opacity="1"/><path stroke-linecap="butt" transform="matrix(0.970781, 0, 0, 0.970781, 2.291003, -51.312244)" fill="none" stroke-linejoin="miter" d="M 92.437227 363.491549 C 87.741428 363.491549 84.160228 362.147593 81.693626 359.451633 C 79.231048 356.703364 77.999759 353.009497 77.999759 348.366008 L 77.999759 125.53086 C 77.999759 120.605704 79.231048 116.85148 81.693626 114.272211 C 84.160228 111.696966 87.741428 110.405319 92.437227 110.405319 C 97.137049 110.405319 100.714225 111.696966 103.180827 114.272211 C 105.643405 116.85148 106.874694 120.605704 106.874694 125.53086 L 106.874694 348.366008 C 106.874694 353.009497 105.699738 356.703364 103.349827 359.451633 C 101.00394 362.147593 97.366406 363.491549 92.437227 363.491549 Z M 92.437227 363.491549 " stroke="#ffffff" stroke-width="26.4" stroke-opacity="1" stroke-miterlimit="4"/><g fill="#101e27" fill-opacity="1"><g transform="translate(48.312109, 299.139845)"><g><path d="M 43.734375 2.390625 C 39.179688 2.390625 35.707031 1.082031 33.3125 -1.53125 C 30.925781 -4.15625 29.734375 -7.742188 29.734375 -12.296875 L 29.734375 -228.609375 C 29.734375 -233.390625 30.925781 -237.03125 33.3125 -239.53125 C 35.707031 -242.039062 39.179688 -243.296875 43.734375 -243.296875 C 48.296875 -243.296875 51.769531 -242.039062 54.15625 -239.53125 C 56.550781 -237.03125 57.75 -233.390625 57.75 -228.609375 L 57.75 -12.296875 C 57.75 -7.742188 56.609375 -4.15625 54.328125 -1.53125 C 52.054688 1.082031 48.523438 2.390625 43.734375 2.390625 Z M 43.734375 2.390625 "/></g></g></g><path stroke-linecap="butt" transform="matrix(0.970781, 0, 0, 0.970781, 135.753687, -11.510202)" fill="none" stroke-linejoin="miter" d="M 92.383118 303.647994 C 83.216855 303.647994 74.215569 302.863349 65.383283 301.286011 C 56.599283 299.712698 48.434952 297.467406 40.890289 294.55416 C 33.393911 291.596652 26.617798 287.870594 20.5539 283.384035 C 18.212037 281.617577 16.590437 279.609691 15.685078 277.368423 C 14.82398 275.123131 14.634861 272.87784 15.109672 270.636572 C 15.588506 268.39128 16.566295 266.483989 18.04706 264.906652 C 19.527826 263.329314 21.342569 262.448097 23.491289 262.254954 C 25.635986 262.065834 27.977849 262.757931 30.508832 264.335269 C 39.292832 270.588286 48.672357 275.147274 58.651432 278.012234 C 68.630506 280.828909 79.87306 282.237246 92.383118 282.237246 C 109.999403 282.237246 123.0567 278.96588 131.555009 272.427172 C 140.053318 265.836154 144.302472 257.172869 144.302472 246.429268 C 144.302472 237.645269 141.224249 230.772583 135.06378 225.807189 C 128.903311 220.793509 118.594284 216.805903 104.124626 213.844371 L 73.620043 207.687926 C 55.239232 203.821035 41.489838 197.447303 32.367837 188.566732 C 23.298146 179.637874 18.7633 167.751509 18.7633 152.903612 C 18.7633 143.689063 20.626329 135.331588 24.348363 127.839235 C 28.074421 120.294571 33.253078 113.824268 39.888357 108.432349 C 46.523637 103.036406 54.42642 98.883823 63.592683 95.970577 C 72.807232 93.009046 82.999569 91.52828 94.173718 91.52828 C 106.490632 91.52828 117.970592 93.250475 128.61762 96.686817 C 139.264649 100.12316 148.909746 105.257555 157.548889 112.081954 C 159.697609 113.848411 161.154232 115.856298 161.918758 118.097566 C 162.683283 120.342857 162.779855 122.491577 162.204449 124.543726 C 161.633066 126.595874 160.606992 128.314045 159.126226 129.69824 C 157.64546 131.082434 155.782431 131.871103 153.541164 132.064246 C 151.295872 132.253366 148.813175 131.464697 146.093072 129.69824 C 138.262718 123.827486 130.146672 119.578331 121.744935 116.950777 C 113.339174 114.27896 104.056221 112.943052 93.884003 112.943052 C 83.526689 112.943052 74.573689 114.516365 67.029026 117.667017 C 59.488386 120.821692 53.613609 125.38068 49.41274 131.348006 C 45.211872 137.267046 43.111437 144.143755 43.111437 151.970085 C 43.111437 161.377777 46.00054 168.825869 51.778747 174.31436 C 57.552929 179.758589 66.98074 183.746195 80.066204 186.273154 L 110.570786 192.791743 C 130.335791 196.89604 144.946283 203.104795 154.398237 211.40996 C 163.898477 219.719149 168.650609 231.009989 168.650609 245.28248 C 168.650609 253.87736 166.884152 261.804286 163.351238 269.059234 C 159.866609 276.26992 154.7805 282.474651 148.096935 287.681475 C 141.461655 292.835989 133.442181 296.799452 124.034489 299.56784 C 114.679106 302.287943 104.124626 303.647994 92.383118 303.647994 Z M 92.383118 303.647994 " stroke="#ffffff" stroke-width="21.999975" stroke-opacity="1" stroke-miterlimit="4"/><g fill="#101e27" fill-opacity="1"><g transform="translate(135.753687, 280.695002)"><g><path d="M 89.703125 2.5625 C 80.773438 2.5625 72.039062 1.800781 63.5 0.28125 C 54.957031 -1.238281 47.03125 -3.421875 39.71875 -6.265625 C 32.414062 -9.109375 25.820312 -12.71875 19.9375 -17.09375 C 17.65625 -18.800781 16.085938 -20.742188 15.234375 -22.921875 C 14.378906 -25.109375 14.1875 -27.289062 14.65625 -29.46875 C 15.132812 -31.65625 16.085938 -33.503906 17.515625 -35.015625 C 18.941406 -36.535156 20.695312 -37.390625 22.78125 -37.578125 C 24.863281 -37.773438 27.140625 -37.113281 29.609375 -35.59375 C 38.160156 -29.519531 47.273438 -25.101562 56.953125 -22.34375 C 66.628906 -19.59375 77.546875 -18.21875 89.703125 -18.21875 C 106.785156 -18.21875 119.457031 -21.394531 127.71875 -27.75 C 135.976562 -34.113281 140.109375 -42.519531 140.109375 -52.96875 C 140.109375 -61.507812 137.117188 -68.195312 131.140625 -73.03125 C 125.160156 -77.875 115.144531 -81.722656 101.09375 -84.578125 L 71.46875 -90.5625 C 53.625 -94.351562 40.285156 -100.566406 31.453125 -109.203125 C 22.628906 -117.847656 18.21875 -129.382812 18.21875 -143.8125 C 18.21875 -152.726562 20.019531 -160.84375 23.625 -168.15625 C 27.238281 -175.46875 32.269531 -181.734375 38.71875 -186.953125 C 45.175781 -192.171875 52.863281 -196.203125 61.78125 -199.046875 C 70.707031 -201.898438 80.582031 -203.328125 91.40625 -203.328125 C 103.363281 -203.328125 114.515625 -201.664062 124.859375 -198.34375 C 135.210938 -195.019531 144.566406 -190.035156 152.921875 -183.390625 C 155.003906 -181.679688 156.425781 -179.734375 157.1875 -177.546875 C 157.945312 -175.367188 158.039062 -173.28125 157.46875 -171.28125 C 156.90625 -169.289062 155.910156 -167.628906 154.484375 -166.296875 C 153.054688 -164.972656 151.25 -164.210938 149.0625 -164.015625 C 146.882812 -163.828125 144.46875 -164.585938 141.8125 -166.296875 C 134.21875 -171.992188 126.335938 -176.125 118.171875 -178.6875 C 110.015625 -181.25 101 -182.53125 91.125 -182.53125 C 81.0625 -182.53125 72.375 -181.007812 65.0625 -177.96875 C 57.757812 -174.9375 52.066406 -170.523438 47.984375 -164.734375 C 43.898438 -158.941406 41.859375 -152.25 41.859375 -144.65625 C 41.859375 -135.550781 44.65625 -128.335938 50.25 -123.015625 C 55.851562 -117.703125 65.015625 -113.8125 77.734375 -111.34375 L 107.359375 -105.078125 C 126.535156 -101.085938 140.722656 -95.054688 149.921875 -86.984375 C 159.128906 -78.921875 163.734375 -67.960938 163.734375 -54.109375 C 163.734375 -45.753906 162.023438 -38.0625 158.609375 -31.03125 C 155.191406 -24.007812 150.253906 -17.984375 143.796875 -12.953125 C 137.347656 -7.921875 129.566406 -4.078125 120.453125 -1.421875 C 111.335938 1.234375 101.085938 2.5625 89.703125 2.5625 Z M 89.703125 2.5625 "/></g></g></g><g clip-path="url(#45f5bb3f22)"><g clip-path="url(#42879f2cc5)"><path fill="#101e27" d="M 20.441406 156.363281 L 354.480469 156.363281 L 354.480469 217.226562 L 20.441406 217.226562 Z M 20.441406 156.363281 " fill-opacity="1" fill-rule="nonzero"/></g></g><g fill="#ffffff" fill-opacity="1"><g transform="translate(37.30376, 204.400165)"><g><path d="M 6.625 0.359375 C 5.9375 0.359375 5.410156 0.160156 5.046875 -0.234375 C 4.679688 -0.628906 4.5 -1.171875 4.5 -1.859375 L 4.5 -34.625 C 4.5 -35.351562 4.679688 -35.90625 5.046875 -36.28125 C 5.410156 -36.664062 5.9375 -36.859375 6.625 -36.859375 C 7.3125 -36.859375 7.835938 -36.664062 8.203125 -36.28125 C 8.566406 -35.90625 8.75 -35.351562 8.75 -34.625 L 8.75 -1.859375 C 8.75 -1.171875 8.578125 -0.628906 8.234375 -0.234375 C 7.890625 0.160156 7.351562 0.359375 6.625 0.359375 Z M 6.625 0.359375 "/></g></g></g><g fill="#ffffff" fill-opacity="1"><g transform="translate(54.439966, 204.400165)"><g><path d="M 6.515625 0.359375 C 5.859375 0.359375 5.359375 0.179688 5.015625 -0.171875 C 4.671875 -0.535156 4.5 -1.066406 4.5 -1.765625 L 4.5 -34.6875 C 4.5 -35.375 4.671875 -35.90625 5.015625 -36.28125 C 5.359375 -36.664062 5.804688 -36.859375 6.359375 -36.859375 C 6.921875 -36.859375 7.328125 -36.757812 7.578125 -36.5625 C 7.835938 -36.375 8.140625 -36.039062 8.484375 -35.5625 L 31.0625 -5.484375 L 29.8125 -5.484375 L 29.8125 -34.78125 C 29.8125 -35.4375 29.984375 -35.945312 30.328125 -36.3125 C 30.679688 -36.675781 31.179688 -36.859375 31.828125 -36.859375 C 32.453125 -36.859375 32.925781 -36.675781 33.25 -36.3125 C 33.582031 -35.945312 33.75 -35.4375 33.75 -34.78125 L 33.75 -1.703125 C 33.75 -1.046875 33.601562 -0.535156 33.3125 -0.171875 C 33.019531 0.179688 32.597656 0.359375 32.046875 0.359375 C 31.523438 0.359375 31.109375 0.253906 30.796875 0.046875 C 30.484375 -0.160156 30.15625 -0.488281 29.8125 -0.9375 L 7.296875 -31 L 8.484375 -31 L 8.484375 -1.765625 C 8.484375 -1.066406 8.3125 -0.535156 7.96875 -0.171875 C 7.625 0.179688 7.140625 0.359375 6.515625 0.359375 Z M 6.515625 0.359375 "/></g></g></g><g fill="#ffffff" fill-opacity="1"><g transform="translate(96.58102, 204.400165)"><g><path d="M 16.3125 0.46875 C 14.6875 0.46875 13.097656 0.328125 11.546875 0.046875 C 9.992188 -0.222656 8.550781 -0.617188 7.21875 -1.140625 C 5.894531 -1.660156 4.695312 -2.316406 3.625 -3.109375 C 3.207031 -3.421875 2.921875 -3.773438 2.765625 -4.171875 C 2.609375 -4.566406 2.570312 -4.960938 2.65625 -5.359375 C 2.75 -5.753906 2.925781 -6.085938 3.1875 -6.359375 C 3.445312 -6.640625 3.765625 -6.796875 4.140625 -6.828125 C 4.515625 -6.867188 4.929688 -6.75 5.390625 -6.46875 C 6.941406 -5.363281 8.597656 -4.5625 10.359375 -4.0625 C 12.117188 -3.5625 14.101562 -3.3125 16.3125 -3.3125 C 19.414062 -3.3125 21.71875 -3.890625 23.21875 -5.046875 C 24.71875 -6.203125 25.46875 -7.726562 25.46875 -9.625 C 25.46875 -11.175781 24.921875 -12.390625 23.828125 -13.265625 C 22.742188 -14.148438 20.925781 -14.851562 18.375 -15.375 L 13 -16.46875 C 9.75 -17.15625 7.320312 -18.28125 5.71875 -19.84375 C 4.113281 -21.414062 3.3125 -23.515625 3.3125 -26.140625 C 3.3125 -27.765625 3.640625 -29.238281 4.296875 -30.5625 C 4.953125 -31.894531 5.863281 -33.035156 7.03125 -33.984375 C 8.207031 -34.929688 9.609375 -35.660156 11.234375 -36.171875 C 12.859375 -36.691406 14.648438 -36.953125 16.609375 -36.953125 C 18.785156 -36.953125 20.8125 -36.648438 22.6875 -36.046875 C 24.570312 -35.453125 26.273438 -34.550781 27.796875 -33.34375 C 28.179688 -33.03125 28.441406 -32.675781 28.578125 -32.28125 C 28.710938 -31.882812 28.726562 -31.503906 28.625 -31.140625 C 28.519531 -30.773438 28.335938 -30.472656 28.078125 -30.234375 C 27.816406 -29.992188 27.488281 -29.851562 27.09375 -29.8125 C 26.695312 -29.78125 26.257812 -29.921875 25.78125 -30.234375 C 24.394531 -31.265625 22.957031 -32.015625 21.46875 -32.484375 C 19.988281 -32.953125 18.351562 -33.1875 16.5625 -33.1875 C 14.738281 -33.1875 13.160156 -32.910156 11.828125 -32.359375 C 10.492188 -31.804688 9.457031 -31.003906 8.71875 -29.953125 C 7.976562 -28.898438 7.609375 -27.679688 7.609375 -26.296875 C 7.609375 -24.640625 8.113281 -23.328125 9.125 -22.359375 C 10.144531 -21.390625 11.8125 -20.679688 14.125 -20.234375 L 19.515625 -19.09375 C 23.003906 -18.375 25.582031 -17.28125 27.25 -15.8125 C 28.925781 -14.34375 29.765625 -12.347656 29.765625 -9.828125 C 29.765625 -8.316406 29.453125 -6.921875 28.828125 -5.640625 C 28.210938 -4.367188 27.316406 -3.273438 26.140625 -2.359375 C 24.960938 -1.441406 23.546875 -0.738281 21.890625 -0.25 C 20.234375 0.226562 18.375 0.46875 16.3125 0.46875 Z M 16.3125 0.46875 "/></g></g></g><g fill="#ffffff" fill-opacity="1"><g transform="translate(132.25083, 204.400165)"><g><path d="M 6.625 0.359375 C 5.9375 0.359375 5.410156 0.160156 5.046875 -0.234375 C 4.679688 -0.628906 4.5 -1.171875 4.5 -1.859375 L 4.5 -34.625 C 4.5 -35.351562 4.679688 -35.90625 5.046875 -36.28125 C 5.410156 -36.664062 5.9375 -36.859375 6.625 -36.859375 C 7.3125 -36.859375 7.835938 -36.664062 8.203125 -36.28125 C 8.566406 -35.90625 8.75 -35.351562 8.75 -34.625 L 8.75 -1.859375 C 8.75 -1.171875 8.578125 -0.628906 8.234375 -0.234375 C 7.890625 0.160156 7.351562 0.359375 6.625 0.359375 Z M 6.625 0.359375 "/></g></g></g><g fill="#ffffff" fill-opacity="1"><g transform="translate(149.387035, 204.400165)"><g><path d="M 21.171875 0.46875 C 17.273438 0.46875 13.988281 -0.269531 11.3125 -1.75 C 8.632812 -3.238281 6.601562 -5.378906 5.21875 -8.171875 C 3.84375 -10.972656 3.15625 -14.320312 3.15625 -18.21875 C 3.15625 -21.113281 3.539062 -23.71875 4.3125 -26.03125 C 5.09375 -28.34375 6.234375 -30.300781 7.734375 -31.90625 C 9.234375 -33.519531 11.0625 -34.765625 13.21875 -35.640625 C 15.382812 -36.515625 17.828125 -36.953125 20.546875 -36.953125 C 22.722656 -36.953125 24.828125 -36.648438 26.859375 -36.046875 C 28.898438 -35.453125 30.710938 -34.5 32.296875 -33.1875 C 32.710938 -32.875 32.972656 -32.523438 33.078125 -32.140625 C 33.179688 -31.765625 33.171875 -31.382812 33.046875 -31 C 32.929688 -30.625 32.742188 -30.304688 32.484375 -30.046875 C 32.222656 -29.785156 31.894531 -29.640625 31.5 -29.609375 C 31.101562 -29.578125 30.695312 -29.695312 30.28125 -29.96875 C 28.863281 -31.070312 27.359375 -31.875 25.765625 -32.375 C 24.179688 -32.875 22.425781 -33.125 20.5 -33.125 C 17.738281 -33.125 15.398438 -32.535156 13.484375 -31.359375 C 11.566406 -30.191406 10.113281 -28.503906 9.125 -26.296875 C 8.144531 -24.085938 7.65625 -21.394531 7.65625 -18.21875 C 7.65625 -13.382812 8.785156 -9.691406 11.046875 -7.140625 C 13.304688 -4.585938 16.71875 -3.3125 21.28125 -3.3125 C 22.9375 -3.3125 24.554688 -3.472656 26.140625 -3.796875 C 27.722656 -4.128906 29.222656 -4.585938 30.640625 -5.171875 L 29.71875 -2.75 L 29.71875 -15.640625 L 22.3125 -15.640625 C 21.6875 -15.640625 21.21875 -15.789062 20.90625 -16.09375 C 20.601562 -16.40625 20.453125 -16.820312 20.453125 -17.34375 C 20.453125 -17.894531 20.601562 -18.304688 20.90625 -18.578125 C 21.21875 -18.859375 21.6875 -19 22.3125 -19 L 31.578125 -19 C 32.160156 -19 32.609375 -18.84375 32.921875 -18.53125 C 33.234375 -18.21875 33.390625 -17.769531 33.390625 -17.1875 L 33.390625 -3.671875 C 33.390625 -3.160156 33.300781 -2.726562 33.125 -2.375 C 32.957031 -2.03125 32.664062 -1.773438 32.25 -1.609375 C 30.800781 -1.015625 29.066406 -0.519531 27.046875 -0.125 C 25.023438 0.269531 23.066406 0.46875 21.171875 0.46875 Z M 21.171875 0.46875 "/></g></g></g><g fill="#ffffff" fill-opacity="1"><g transform="translate(190.803299, 204.400165)"><g><path d="M 6.625 0.359375 C 5.9375 0.359375 5.410156 0.160156 5.046875 -0.234375 C 4.679688 -0.628906 4.5 -1.171875 4.5 -1.859375 L 4.5 -34.625 C 4.5 -35.351562 4.679688 -35.90625 5.046875 -36.28125 C 5.410156 -36.664062 5.9375 -36.859375 6.625 -36.859375 C 7.3125 -36.859375 7.835938 -36.664062 8.203125 -36.28125 C 8.566406 -35.90625 8.75 -35.351562 8.75 -34.625 L 8.75 -20.34375 L 30.640625 -20.34375 L 30.640625 -34.625 C 30.640625 -35.351562 30.820312 -35.90625 31.1875 -36.28125 C 31.550781 -36.664062 32.078125 -36.859375 32.765625 -36.859375 C 33.453125 -36.859375 33.976562 -36.664062 34.34375 -36.28125 C 34.707031 -35.90625 34.890625 -35.351562 34.890625 -34.625 L 34.890625 -1.859375 C 34.890625 -1.171875 34.707031 -0.628906 34.34375 -0.234375 C 33.976562 0.160156 33.453125 0.359375 32.765625 0.359375 C 32.078125 0.359375 31.550781 0.160156 31.1875 -0.234375 C 30.820312 -0.628906 30.640625 -1.171875 30.640625 -1.859375 L 30.640625 -16.671875 L 8.75 -16.671875 L 8.75 -1.859375 C 8.75 -1.171875 8.578125 -0.628906 8.234375 -0.234375 C 7.890625 0.160156 7.351562 0.359375 6.625 0.359375 Z M 6.625 0.359375 "/></g></g></g><g fill="#ffffff" fill-opacity="1"><g transform="translate(234.031512, 204.400165)"><g><path d="M 15.578125 0.359375 C 14.921875 0.359375 14.398438 0.160156 14.015625 -0.234375 C 13.640625 -0.628906 13.453125 -1.171875 13.453125 -1.859375 L 13.453125 -32.8125 L 1.8125 -32.8125 C 1.1875 -32.8125 0.703125 -32.984375 0.359375 -33.328125 C 0.015625 -33.679688 -0.15625 -34.132812 -0.15625 -34.6875 C -0.15625 -35.269531 0.015625 -35.71875 0.359375 -36.03125 C 0.703125 -36.34375 1.1875 -36.5 1.8125 -36.5 L 29.40625 -36.5 C 30.019531 -36.5 30.5 -36.34375 30.84375 -36.03125 C 31.195312 -35.71875 31.375 -35.269531 31.375 -34.6875 C 31.375 -34.09375 31.195312 -33.628906 30.84375 -33.296875 C 30.5 -32.972656 30.019531 -32.8125 29.40625 -32.8125 L 17.75 -32.8125 L 17.75 -1.859375 C 17.75 -1.171875 17.566406 -0.628906 17.203125 -0.234375 C 16.847656 0.160156 16.304688 0.359375 15.578125 0.359375 Z M 15.578125 0.359375 "/></g></g></g><g fill="#ffffff" fill-opacity="1"><g transform="translate(269.028318, 204.400165)"><g><path d="M 6.828125 0 C 6.066406 0 5.488281 -0.195312 5.09375 -0.59375 C 4.695312 -0.988281 4.5 -1.566406 4.5 -2.328125 L 4.5 -34.171875 C 4.5 -34.921875 4.695312 -35.492188 5.09375 -35.890625 C 5.488281 -36.296875 6.066406 -36.5 6.828125 -36.5 L 26.09375 -36.5 C 26.675781 -36.5 27.125 -36.34375 27.4375 -36.03125 C 27.75 -35.71875 27.90625 -35.285156 27.90625 -34.734375 C 27.90625 -34.148438 27.75 -33.703125 27.4375 -33.390625 C 27.125 -33.078125 26.675781 -32.921875 26.09375 -32.921875 L 8.640625 -32.921875 L 8.640625 -20.296875 L 25 -20.296875 C 25.59375 -20.296875 26.039062 -20.144531 26.34375 -19.84375 C 26.65625 -19.550781 26.8125 -19.113281 26.8125 -18.53125 C 26.8125 -17.945312 26.65625 -17.5 26.34375 -17.1875 C 26.039062 -16.875 25.59375 -16.71875 25 -16.71875 L 8.640625 -16.71875 L 8.640625 -3.578125 L 26.09375 -3.578125 C 26.675781 -3.578125 27.125 -3.421875 27.4375 -3.109375 C 27.75 -2.796875 27.90625 -2.363281 27.90625 -1.8125 C 27.90625 -1.226562 27.75 -0.78125 27.4375 -0.46875 C 27.125 -0.15625 26.675781 0 26.09375 0 Z M 6.828125 0 "/></g></g></g><g fill="#ffffff" fill-opacity="1"><g transform="translate(303.041485, 204.400165)"><g><path d="M 6.625 0.359375 C 5.9375 0.359375 5.410156 0.160156 5.046875 -0.234375 C 4.679688 -0.628906 4.5 -1.171875 4.5 -1.859375 L 4.5 -34.328125 C 4.5 -35.046875 4.6875 -35.585938 5.0625 -35.953125 C 5.445312 -36.316406 5.984375 -36.5 6.671875 -36.5 L 18.953125 -36.5 C 22.847656 -36.5 25.847656 -35.582031 27.953125 -33.75 C 30.054688 -31.914062 31.109375 -29.3125 31.109375 -25.9375 C 31.109375 -23.789062 30.632812 -21.929688 29.6875 -20.359375 C 28.738281 -18.796875 27.347656 -17.609375 25.515625 -16.796875 C 23.691406 -15.984375 21.503906 -15.578125 18.953125 -15.578125 L 19.46875 -16.25 L 20.5 -16.25 C 21.84375 -16.25 23.015625 -15.90625 24.015625 -15.21875 C 25.015625 -14.53125 25.929688 -13.425781 26.765625 -11.90625 L 31.734375 -2.640625 C 32.003906 -2.160156 32.128906 -1.6875 32.109375 -1.21875 C 32.097656 -0.75 31.9375 -0.367188 31.625 -0.078125 C 31.3125 0.210938 30.863281 0.359375 30.28125 0.359375 C 29.695312 0.359375 29.210938 0.222656 28.828125 -0.046875 C 28.453125 -0.328125 28.125 -0.726562 27.84375 -1.25 L 22.203125 -11.703125 C 21.410156 -13.179688 20.492188 -14.171875 19.453125 -14.671875 C 18.421875 -15.171875 17.0625 -15.421875 15.375 -15.421875 L 8.75 -15.421875 L 8.75 -1.859375 C 8.75 -1.171875 8.578125 -0.628906 8.234375 -0.234375 C 7.890625 0.160156 7.351562 0.359375 6.625 0.359375 Z M 8.75 -18.796875 L 18.328125 -18.796875 C 21.148438 -18.796875 23.285156 -19.390625 24.734375 -20.578125 C 26.191406 -21.765625 26.921875 -23.550781 26.921875 -25.9375 C 26.921875 -28.25 26.191406 -30 24.734375 -31.1875 C 23.285156 -32.375 21.148438 -32.96875 18.328125 -32.96875 L 8.75 -32.96875 Z M 8.75 -18.796875 "/></g></g></g></svg>